<svg width="161" height="60" viewBox="0 0 161 60" fill="none" xmlns="http://www.w3.org/2000/svg">
<path d="M8.64 35.622C8.64 36.918 8.832 38.112 9.216 39.204C9.612 40.296 10.158 41.172 10.854 41.832C11.55 42.492 12.372 42.822 13.32 42.822C14.184 42.822 14.946 42.492 15.606 41.832C16.278 41.172 16.8 40.296 17.172 39.204C17.544 38.112 17.73 36.918 17.73 35.622C17.73 34.326 17.544 33.132 17.172 32.04C16.8 30.948 16.278 30.072 15.606 29.412C14.946 28.752 14.184 28.422 13.32 28.422C12.372 28.422 11.55 28.752 10.854 29.412C10.158 30.072 9.612 30.948 9.216 32.04C8.832 33.132 8.64 34.326 8.64 35.622ZM0.882 28.008V26.928C0.882 26.628 0.936 26.448 1.044 26.388C1.152 26.316 1.338 26.28 1.602 26.28H7.938C8.202 26.28 8.382 26.316 8.478 26.388C8.586 26.46 8.64 26.634 8.64 26.91V28.638C8.64 29.022 8.676 29.226 8.748 29.25C8.82 29.262 8.922 29.16 9.054 28.944C9.618 27.984 10.374 27.222 11.322 26.658C12.27 26.094 13.368 25.812 14.616 25.812C16.08 25.812 17.418 26.196 18.63 26.964C19.842 27.732 20.808 28.848 21.528 30.312C22.248 31.776 22.608 33.546 22.608 35.622C22.608 37.698 22.236 39.468 21.492 40.932C20.76 42.396 19.776 43.512 18.54 44.28C17.316 45.048 15.972 45.432 14.508 45.432C13.38 45.432 12.384 45.21 11.52 44.766C10.656 44.31 9.942 43.674 9.378 42.858C9.114 42.486 8.922 42.33 8.802 42.39C8.694 42.438 8.64 42.936 8.64 43.884V50.724C8.64 51.108 8.688 51.348 8.784 51.444C8.892 51.54 9.132 51.588 9.504 51.588H11.25C11.526 51.588 11.7 51.624 11.772 51.696C11.844 51.78 11.88 51.96 11.88 52.236V53.496C11.88 53.784 11.844 53.958 11.772 54.018C11.7 54.078 11.52 54.108 11.232 54.108H1.512C1.236 54.108 1.062 54.054 0.99 53.946C0.918 53.85 0.882 53.676 0.882 53.424V52.218C0.882 51.966 0.906 51.798 0.954 51.714C1.014 51.63 1.164 51.588 1.404 51.588H3.366C3.714 51.588 3.924 51.534 3.996 51.426C4.08 51.318 4.122 51.084 4.122 50.724V29.556C4.122 29.208 4.056 28.998 3.924 28.926C3.804 28.842 3.582 28.8 3.258 28.8H1.602C1.278 28.8 1.074 28.746 0.99 28.638C0.918 28.53 0.882 28.32 0.882 28.008ZM24.7984 44.424V43.002C24.7984 42.81 24.8284 42.678 24.8884 42.606C24.9604 42.522 25.0984 42.48 25.3024 42.48H27.0844C27.3844 42.48 27.5764 42.438 27.6604 42.354C27.7444 42.27 27.7864 42.078 27.7864 41.778V29.448C27.7864 29.148 27.7324 28.968 27.6244 28.908C27.5164 28.836 27.3184 28.8 27.0304 28.8H25.5904C25.2784 28.8 25.0684 28.764 24.9604 28.692C24.8524 28.62 24.7984 28.434 24.7984 28.134V27.072C24.7984 26.748 24.8404 26.538 24.9244 26.442C25.0204 26.334 25.2244 26.28 25.5364 26.28H31.3324C31.6084 26.28 31.8004 26.316 31.9084 26.388C32.0284 26.448 32.0884 26.622 32.0884 26.91V27.846C32.0884 28.35 32.1184 28.674 32.1784 28.818C32.2384 28.962 32.3224 28.986 32.4304 28.89C32.5384 28.782 32.6704 28.614 32.8264 28.386C33.3664 27.63 34.0624 27.012 34.9144 26.532C35.7784 26.052 36.8224 25.812 38.0464 25.812C39.3424 25.812 40.3564 26.04 41.0884 26.496C41.8204 26.952 42.4144 27.576 42.8704 28.368C43.0744 28.716 43.2424 28.872 43.3744 28.836C43.5184 28.8 43.6924 28.662 43.8964 28.422C44.5324 27.69 45.2824 27.072 46.1464 26.568C47.0104 26.064 48.0664 25.812 49.3144 25.812C51.3064 25.812 52.7284 26.316 53.5804 27.324C54.4324 28.32 54.8584 29.784 54.8584 31.716V41.724C54.8584 42.048 54.9004 42.258 54.9844 42.354C55.0804 42.438 55.2964 42.48 55.6324 42.48H57.3604C57.5644 42.48 57.7024 42.522 57.7744 42.606C57.8464 42.678 57.8824 42.828 57.8824 43.056V44.136C57.8824 44.508 57.8344 44.748 57.7384 44.856C57.6424 44.952 57.4144 45 57.0544 45H48.3964C48.0484 45 47.8084 44.958 47.6764 44.874C47.5564 44.79 47.4964 44.568 47.4964 44.208V43.218C47.4964 42.93 47.5324 42.738 47.6044 42.642C47.6764 42.534 47.8504 42.48 48.1264 42.48H49.5844C49.9084 42.48 50.1124 42.444 50.1964 42.372C50.2804 42.288 50.3224 42.09 50.3224 41.778V32.166C50.3224 30.942 50.1424 30.03 49.7824 29.43C49.4344 28.818 48.8224 28.512 47.9464 28.512C46.9384 28.512 46.1104 28.782 45.4624 29.322C44.8264 29.85 44.3524 30.588 44.0404 31.536C43.7404 32.484 43.5904 33.576 43.5904 34.812V41.778C43.5904 42.066 43.6444 42.258 43.7524 42.354C43.8604 42.438 44.0584 42.48 44.3464 42.48H45.3904C45.6424 42.48 45.8224 42.51 45.9304 42.57C46.0504 42.618 46.1104 42.78 46.1104 43.056V44.244C46.1104 44.556 46.0684 44.76 45.9844 44.856C45.9004 44.952 45.6904 45 45.3544 45H37.2364C36.9604 45 36.7744 44.964 36.6784 44.892C36.5944 44.808 36.5524 44.622 36.5524 44.334V43.236C36.5524 42.924 36.5944 42.72 36.6784 42.624C36.7624 42.528 36.9604 42.48 37.2724 42.48H38.3524C38.6644 42.48 38.8564 42.438 38.9284 42.354C39.0124 42.258 39.0544 42.06 39.0544 41.76V32.166C39.0544 30.942 38.8744 30.03 38.5144 29.43C38.1664 28.818 37.5544 28.512 36.6784 28.512C35.7544 28.512 34.9624 28.782 34.3024 29.322C33.6544 29.85 33.1564 30.588 32.8084 31.536C32.4724 32.484 32.3044 33.576 32.3044 34.812V41.706C32.3044 42.066 32.3344 42.288 32.3944 42.372C32.4664 42.444 32.6764 42.48 33.0244 42.48H34.5184C34.7704 42.48 34.9384 42.516 35.0224 42.588C35.1064 42.66 35.1484 42.828 35.1484 43.092V44.334C35.1484 44.526 35.1184 44.688 35.0584 44.82C34.9984 44.94 34.8604 45 34.6444 45H25.4104C25.1824 45 25.0204 44.97 24.9244 44.91C24.8404 44.838 24.7984 44.676 24.7984 44.424ZM62.4608 28.8H60.3008C60.0728 28.8 59.9288 28.758 59.8688 28.674C59.8088 28.59 59.7788 28.434 59.7788 28.206V26.856C59.7788 26.628 59.8268 26.478 59.9228 26.406C60.0188 26.322 60.1688 26.28 60.3728 26.28H66.6368C66.8648 26.28 67.0328 26.34 67.1408 26.46C67.2608 26.58 67.3208 26.754 67.3208 26.982V28.656C67.3208 29.124 67.3568 29.364 67.4288 29.376C67.5128 29.376 67.6388 29.268 67.8068 29.052C68.4068 28.152 69.1868 27.39 70.1468 26.766C71.1068 26.13 72.3608 25.812 73.9088 25.812C75.3968 25.812 76.5848 26.04 77.4728 26.496C78.3608 26.94 78.9968 27.6 79.3808 28.476C79.7648 29.352 79.9568 30.432 79.9568 31.716V41.688C79.9568 42.012 79.9928 42.228 80.0648 42.336C80.1488 42.432 80.3528 42.48 80.6768 42.48H82.6748C82.8908 42.48 83.0288 42.522 83.0888 42.606C83.1608 42.69 83.1968 42.84 83.1968 43.056V44.442C83.1968 44.706 83.1488 44.868 83.0528 44.928C82.9568 44.976 82.7708 45 82.4948 45H73.1168C72.8768 45 72.7328 44.952 72.6848 44.856C72.6368 44.76 72.6128 44.598 72.6128 44.37V43.092C72.6128 42.876 72.6368 42.72 72.6848 42.624C72.7448 42.528 72.8888 42.48 73.1168 42.48H74.7008C75.0008 42.48 75.1988 42.444 75.2948 42.372C75.3908 42.288 75.4388 42.09 75.4388 41.778V32.166C75.4388 30.942 75.2048 30.03 74.7368 29.43C74.2808 28.818 73.5488 28.512 72.5408 28.512C71.5808 28.512 70.7228 28.782 69.9668 29.322C69.2108 29.85 68.6168 30.588 68.1848 31.536C67.7528 32.484 67.5368 33.576 67.5368 34.812V41.76C67.5368 42.024 67.5848 42.21 67.6808 42.318C67.7888 42.426 67.9868 42.48 68.2748 42.48H69.6968C69.9488 42.48 70.1168 42.516 70.2008 42.588C70.2968 42.66 70.3448 42.834 70.3448 43.11V44.424C70.3448 44.664 70.2968 44.82 70.2008 44.892C70.1168 44.964 69.9608 45 69.7328 45H60.3008C60.0608 45 59.9108 44.958 59.8508 44.874C59.8028 44.79 59.7788 44.622 59.7788 44.37V43.11C59.7788 42.834 59.8268 42.66 59.9228 42.588C60.0188 42.516 60.1928 42.48 60.4448 42.48H62.3168C62.5928 42.48 62.7788 42.45 62.8748 42.39C62.9708 42.33 63.0188 42.168 63.0188 41.904V29.268C63.0188 29.064 62.9768 28.938 62.8928 28.89C62.8088 28.83 62.6648 28.8 62.4608 28.8ZM97.1949 41.544C96.8949 42.24 96.4989 42.888 96.0069 43.488C95.5269 44.088 94.9149 44.574 94.1709 44.946C93.4269 45.306 92.5029 45.486 91.3989 45.486C89.8629 45.486 88.7469 45.12 88.0509 44.388C87.3669 43.644 87.0249 42.636 87.0249 41.364V29.43C87.0249 29.202 86.9889 29.04 86.9169 28.944C86.8449 28.848 86.6949 28.8 86.4669 28.8H84.2709C84.0309 28.8 83.8689 28.77 83.7849 28.71C83.7129 28.638 83.6769 28.482 83.6769 28.242V26.82C83.6769 26.568 83.7129 26.418 83.7849 26.37C83.8569 26.31 84.0129 26.28 84.2529 26.28C84.9129 26.28 85.4949 26.232 85.9989 26.136C86.5029 26.04 86.9409 25.836 87.3129 25.524C87.6849 25.212 88.0149 24.726 88.3029 24.066C88.6029 23.406 88.8849 22.506 89.1489 21.366C89.1969 21.15 89.2449 21.006 89.2929 20.934C89.3529 20.85 89.5269 20.808 89.8149 20.808H91.0569C91.3929 20.808 91.5609 20.988 91.5609 21.348V25.668C91.5609 25.932 91.6089 26.1 91.7049 26.172C91.8129 26.244 91.9869 26.28 92.2269 26.28H96.0789C96.3069 26.28 96.4569 26.316 96.5289 26.388C96.6009 26.46 96.6369 26.616 96.6369 26.856V28.35C96.6369 28.554 96.5889 28.68 96.4929 28.728C96.4089 28.776 96.2649 28.8 96.0609 28.8H92.2449C92.0169 28.8 91.8429 28.836 91.7229 28.908C91.6149 28.98 91.5609 29.142 91.5609 29.394V40.644C91.5609 41.328 91.6929 41.832 91.9569 42.156C92.2209 42.48 92.5869 42.642 93.0549 42.642C93.5109 42.642 93.9249 42.486 94.2969 42.174C94.6809 41.862 95.0349 41.394 95.3589 40.77C95.4549 40.59 95.5389 40.482 95.6109 40.446C95.6949 40.398 95.8389 40.422 96.0429 40.518L96.8709 40.932C97.0509 41.016 97.1709 41.1 97.2309 41.184C97.2909 41.256 97.2789 41.376 97.1949 41.544ZM111.867 32.076C111.399 30.756 110.661 29.76 109.653 29.088C108.657 28.404 107.601 28.062 106.485 28.062C105.645 28.062 104.997 28.266 104.541 28.674C104.097 29.07 103.875 29.58 103.875 30.204C103.875 30.96 104.145 31.554 104.685 31.986C105.237 32.406 105.945 32.754 106.809 33.03C107.673 33.306 108.585 33.582 109.545 33.858C110.517 34.134 111.429 34.482 112.281 34.902C113.145 35.31 113.847 35.88 114.387 36.612C114.939 37.332 115.215 38.286 115.215 39.474C115.215 40.83 114.903 41.958 114.279 42.858C113.655 43.758 112.809 44.43 111.741 44.874C110.685 45.318 109.503 45.54 108.195 45.54C107.007 45.54 105.957 45.354 105.045 44.982C104.145 44.61 103.407 44.19 102.831 43.722C102.663 43.566 102.525 43.494 102.417 43.506C102.321 43.506 102.225 43.608 102.129 43.812L101.679 44.928C101.619 45.072 101.541 45.18 101.445 45.252C101.349 45.324 101.193 45.36 100.977 45.36H99.6089C99.4289 45.36 99.3089 45.318 99.2489 45.234C99.1889 45.162 99.1589 45.036 99.1589 44.856V39.024C99.1589 38.808 99.1889 38.658 99.2489 38.574C99.3089 38.49 99.4409 38.448 99.6449 38.448H101.229C101.457 38.448 101.601 38.49 101.661 38.574C101.733 38.646 101.799 38.766 101.859 38.934C102.171 39.882 102.591 40.674 103.119 41.31C103.659 41.934 104.301 42.402 105.045 42.714C105.789 43.026 106.623 43.182 107.547 43.182C108.639 43.182 109.473 42.954 110.049 42.498C110.637 42.03 110.931 41.406 110.931 40.626C110.931 39.87 110.661 39.282 110.121 38.862C109.581 38.442 108.885 38.1 108.033 37.836C107.193 37.572 106.299 37.308 105.351 37.044C104.403 36.768 103.503 36.42 102.651 36C101.811 35.568 101.121 34.98 100.581 34.236C100.041 33.48 99.7709 32.484 99.7709 31.248C99.7709 30.084 100.035 29.094 100.563 28.278C101.103 27.45 101.829 26.82 102.741 26.388C103.653 25.956 104.685 25.74 105.837 25.74C107.037 25.74 108.069 25.938 108.933 26.334C109.809 26.718 110.499 27.144 111.003 27.612C111.183 27.78 111.303 27.882 111.363 27.918C111.423 27.942 111.507 27.81 111.615 27.522L112.065 26.316C112.137 26.148 112.209 26.04 112.281 25.992C112.365 25.944 112.527 25.92 112.767 25.92H114.099C114.411 25.92 114.567 26.088 114.567 26.424V32.13C114.567 32.322 114.537 32.454 114.477 32.526C114.417 32.586 114.285 32.616 114.081 32.616H112.515C112.263 32.616 112.107 32.574 112.047 32.49C111.999 32.394 111.939 32.256 111.867 32.076Z" fill="#545454"/>
<path d="M127.315 44.75L117.577 35.0125L120.011 32.5781L127.315 39.8813L142.989 24.2073L145.423 26.6417L127.315 44.75Z" fill="#545454"/>
<path d="M137.315 44.75L133 41L135.5 38.5L137.315 39.8813L152.989 24.2073L155.423 26.6417L137.315 44.75Z" fill="#545454"/>
</svg>
